<!--?xml version="1.0" encoding="utf-8"?-->
<!-- Generator: Adobe Illustrator 22.1.0, SVG Export Plug-In . SVG Version: 6.00 Build 0)  -->
<svg version="1.1" id="_x34_" xmlns="http://www.w3.org/2000/svg" xmlns:xlink="http://www.w3.org/1999/xlink" x="0px" y="0px" viewBox="0 0 800 512.9" style="enable-background:new 0 0 800 512.9;" xml:space="preserve">
<style type="text/css">
	.stblack{fill:#000000;}
	.st0{fill:#FFFFFF;}
</style>
<g>
	<path class="stblack" d="M641,500c-10.8,0-31.8-6.3-44.9-13.4c-8.6-4.7-16.5-10.4-22.8-15c-3.2-2.3-7.2-5.2-9.9-6.8C514.7,476.8,459.7,483,400,483
		c-230.8,0-380-92.3-380-235.1C20,105.1,169.2,12.8,400,12.8s380,92.3,380,235.1c0,78.3-46.1,144.2-129.9,185.8
		c-0.9,8.2,3.1,29.1,8.7,39c3.2,5.8,3.2,12.5-0.1,18.1C656.7,494.2,651.7,500,641,500L641,500z"></path>
	<path class="st0" d="M762.8,247.9c0,74.5-45.1,134.1-123.8,172.1c-12.4,6-3.8,45.8,4.8,61.2c2.7,4.8-23.9-1.2-39.3-9.6
		c-18.6-10.2-34.3-26.2-41.2-24.5c-47.6,12.2-102.5,18.7-163.3,18.7c-220.4,0-362.8-85.5-362.8-217.9C37.2,115.5,179.6,30,400,30
		S762.8,115.5,762.8,247.9z"></path>
</g>
</svg>
