<!--?xml version="1.0" encoding="utf-8"?-->
<!-- Generator: Adobe Illustrator 22.1.0, SVG Export Plug-In . SVG Version: 6.00 Build 0)  -->
<svg version="1.1" id="_x34_" xmlns="http://www.w3.org/2000/svg" xmlns:xlink="http://www.w3.org/1999/xlink" x="0px" y="0px" viewBox="0 0 800 477.2" style="enable-background:new 0 0 800 477.2;" xml:space="preserve">
<style type="text/css">
	.stblack{fill:#000000;}
	.st0{fill:#FFFFFF;}
</style>
<g>
	<path class="stblack" d="M202.8,64.5c65.5,22.3,158.3,0.9,175.3-52.6c19.9,60.6,160.4,58.2,196.5,16.6c-19,48.1,21,69.1,72.6,35.1
		c-24.8,44.8,48.8,91.1,132.7,80.1c-62,28.4-77.9,87.3-4.7,104.8C700.5,261.3,588.4,395,641.1,437.7
		c-52.7-42.7-178.8-21.2-185.3,27.5c-30.4-45.2-112.5-59.5-145.3-12.5c-30.3-51.7-119.5-64.8-187.8-25c30.2-41,6.4-79.1-70.1-60.1
		C122,323.6,95.8,205.8,20,184.7c77-1.5,99.6-63.4,42.5-108.6C148.3,97.2,219.6,108.3,202.8,64.5z"></path>
	<path class="st0" d="M452.2,439.8c-20.8-18.8-50.2-30.2-80.3-30.2c-24,0-44.8,7.3-60.3,20.9C289,405,252,390.2,209.1,390.2
		c-20.4,0-40.6,3.4-59.8,9.8c0.9-8.8-0.5-17.2-4.3-24.7c-5-9.9-18.6-26.3-53.8-27c13.5-21.5,18.8-48.5,14.5-77.4
		c-4.8-32.6-20.7-60.9-43.4-79.6c21.5-8.1,36.8-22.6,43.3-41.7c5.5-16.4,3.6-33.8-4.9-50.3c30.7,6.4,53.1,9.4,70.1,9.4c0,0,0,0,0,0
		c21.9,0,36.2-5.2,43.6-16c2-2.9,3.4-6,4.2-9.4c12.8,2.6,26.3,4,40,4c29.2,0,58.1-6.1,81.3-17.3c16.6-8,29.8-18.2,39.1-30.1
		c22.8,23.9,64,33,100.2,33c24.5,0,53.6-4.1,76.9-14.6c0.9,6.7,3.2,12.8,6.8,18.1c7.9,11.7,21.3,18.1,37.7,18.1
		c8.9,0,18.3-1.9,28.1-5.5c1,6.5,3.3,12.9,7,19.1c15.7,26.6,53.7,45.7,98.1,50.3c-15.1,15.6-22.9,33.6-21.2,51.1
		c1,10,5.7,25.4,23.8,37.9c-19.4,10-39.7,25-58.9,43.8c-31.2,30.5-53.5,64.9-61.2,94.3c-2.1,7.9-3,15.3-2.9,22.4
		c-15.4-4.8-32.9-7.3-51.8-7.3c-27.5,0-54.6,5.3-76.1,15C471,422.1,459.8,430.3,452.2,439.8z"></path>
</g>
</svg>
