<!--?xml version="1.0" encoding="utf-8"?-->
<!-- Generator: Adobe Illustrator 22.1.0, SVG Export Plug-In . SVG Version: 6.00 Build 0)  -->
<svg version="1.1" id="_x33_" xmlns="http://www.w3.org/2000/svg" xmlns:xlink="http://www.w3.org/1999/xlink" x="0px" y="0px" viewBox="0 0 800 643.1" style="enable-background:new 0 0 800 643.1;" xml:space="preserve">
<style type="text/css">
	.stblack{fill:#000000;}
	.st0{fill:#FFFFFF;}
</style>
<g>
	<path class="stblack" d="M400,509.2c-15.1,0-30.2-3.4-43.8-9.7c-9.5-4.4-23-6.3-46.7-6.3c-13.9,0-31.9,0.6-56.6,2c-5.6,0.3-11.2,0.5-16.7,0.5
		c0,0,0,0,0,0c-67.8,0-124.2-24.5-162.9-70.9C38.9,383.7,20,326.2,20,263.1c0-32.7,8.2-68.3,23-100.2c16.9-36.5,41.5-65.9,71-85.2
		c40-26.1,82.3-42.5,133-51.7c45.9-8.3,94.3-10,153-10s107.1,1.7,153,10c50.7,9.2,93,25.6,133,51.7c29.5,19.3,54.1,48.7,71,85.2
		c14.8,31.9,23,67.5,23,100.2c0,63.1-18.9,120.6-53.3,161.7c-38.7,46.4-95.1,70.9-162.9,70.9c-5.5,0-11.1-0.2-16.7-0.5
		c-24.7-1.4-42.7-2-56.6-2c-23.7,0-37.2,1.8-46.7,6.3C430.2,505.8,415.1,509.2,400,509.2z"></path>
	<ellipse cx="429.1" cy="542.1" rx="42.6" ry="33.8"></ellipse>
	<path class="stblack" d="M465.3,627c-19.6,0-29.8-12.6-29.8-25.1c0-12.4,10.2-25.1,29.8-25.1c19.6,0,29.8,12.6,29.8,25.1
		C495.1,614.4,484.8,627,465.3,627z"></path>
	<path class="st0" d="M252.2,480.3c67.3-3.8,92.9-2.6,110.4,5.6c23.6,11.1,51.2,11.1,74.8,0c17.5-8.2,43.1-9.4,110.4-5.6
		c146.2,8.3,217.2-97.3,217.2-217.2c0-58.3-28.5-134.6-87.2-172.9C596.5,37.2,511.7,31,400,31s-196.5,6.2-277.8,59.2
		c-58.7,38.3-87.2,114.6-87.2,172.9C34.9,383.1,106,488.6,252.2,480.3z"></path>
	<path class="st0" d="M429.1,523.3c-18.2,0-27.7,8.4-27.7,18.8c0,10.4,9.5,18.8,27.7,18.8c18.2,0,27.7-8.4,27.7-18.8
		C456.8,531.7,447.3,523.3,429.1,523.3z"></path>
	<path class="st0" d="M450.4,602c0,5.6,5.1,10.1,14.9,10.1c9.8,0,14.9-4.5,14.9-10.1s-5.1-10.1-14.9-10.1
		C455.5,591.9,450.4,596.4,450.4,602z"></path>
</g>
</svg>
