<?xml version="1.0" encoding="UTF-8" standalone="no"?>
<svg
   xmlns:dc="http://purl.org/dc/elements/1.1/"
   xmlns:cc="http://creativecommons.org/ns#"
   xmlns:rdf="http://www.w3.org/1999/02/22-rdf-syntax-ns#"
   xmlns:svg="http://www.w3.org/2000/svg"
   xmlns="http://www.w3.org/2000/svg"
   version="1.1"
   id="svg6604"
   viewBox="0 0 547.51172 854.5651"
   height="241.17726mm"
   width="154.51997mm">
  <defs
     id="defs6606" />
  <metadata
     id="metadata6609">
    <rdf:RDF>
      <cc:Work
         rdf:about="">
        <dc:format>image/svg+xml</dc:format>
        <dc:type
           rdf:resource="http://purl.org/dc/dcmitype/StillImage" />
        <dc:title></dc:title>
      </cc:Work>
    </rdf:RDF>
  </metadata>
  <g
     transform="translate(-190.92858,204.63779)"
     id="layer1">
    <path
       id="path7163"
       d="m 393.83189,644.65234 c -1.9175,-3.39032 -4.44661,-6.16423 -5.62023,-6.16423 -1.17361,0 -2.13385,-7.10704 -2.13385,-15.79342 0,-9.16342 -1.10463,-15.79342 -2.6313,-15.79342 -4.05595,0 -7.11777,-10.05485 -5.73413,-18.83063 0.89904,-5.70218 2.59124,-7.89671 6.08911,-7.89671 4.30256,0 4.84276,-1.96922 4.83239,-17.61574 -0.018,-28.56139 -3.18715,-72.2853 -5.23778,-72.2853 -1.04338,0 -2.63765,2.79211 -3.54278,6.20471 -1.7065,6.4338 -27.72524,41.34221 -34.72735,46.59243 -13.52992,10.14482 -24.11748,15.95806 -32.70249,17.95578 -5.3887,1.25395 -11.53087,2.78054 -13.64927,3.39241 -13.84958,4.0003 -31.83053,8.31356 -32.40221,7.7726 -0.37346,-0.35341 8.33127,-9.36235 19.34388,-20.01987 20.01132,-19.36609 49.15919,-56.92465 58.40795,-75.26173 5.0309,-9.97452 5.23563,-23.08269 0.36051,-23.08269 -7.06501,0 -55.39438,30.86924 -57.32064,36.61222 -2.07425,6.18413 -14.75595,14.41269 -22.21256,14.41269 -3.33787,0 -10.67016,-3.00682 -16.29399,-6.68183 -5.62383,-3.67501 -14.26935,-7.77523 -19.21228,-9.1116 -7.18971,-1.9438 -10.27101,-4.85951 -15.40651,-14.57854 -3.53067,-6.68184 -10.17472,-15.94599 -14.76459,-20.587 -4.58986,-4.64101 -8.34519,-9.23838 -8.34519,-10.21638 0,-3.40402 18.61187,-5.04763 39.40884,-3.48019 19.2012,1.44717 21.93288,1.07111 33.01255,-4.54462 6.64358,-3.36728 13.86539,-6.12233 16.04847,-6.12233 2.18309,0 3.96925,-1.09339 3.96925,-2.42976 0,-1.33636 1.20893,-2.42976 2.68649,-2.42976 1.47756,0 11.01035,-3.63644 21.18397,-8.08101 10.1736,-4.44456 30.33434,-12.37164 44.80163,-17.61574 25.69139,-9.3126 26.30455,-9.71397 26.31947,-17.22897 0.008,-4.23181 -1.2915,-8.10643 -2.88873,-8.61021 -1.63134,-0.51455 -2.80321,-5.66975 -2.67395,-11.76304 0.32634,-15.3846 -2.08188,-18.21974 -12.54456,-14.76843 -6.8529,2.26052 -9.19103,2.09705 -12.67476,-0.88623 -2.4893,-2.13173 -9.15678,-3.65813 -15.97912,-3.65813 -13.30476,0 -53.02511,10.23341 -62.48429,16.09822 -3.45848,2.14431 -6.28819,2.77072 -6.28819,1.39201 0,-1.3787 1.05333,-2.87118 2.34072,-3.31665 1.2874,-0.44545 9.81292,-7.37025 18.94561,-15.38845 9.13267,-8.0182 19.02535,-16.21864 21.98373,-18.22319 2.9584,-2.00455 15.80943,-10.68031 28.55786,-19.27949 22.5572,-15.21546 26.47654,-20.36387 20.09766,-26.39995 -2.39657,-2.26777 -0.11401,-2.91571 10.271,-2.91571 7.34377,0 13.35232,-1.09339 13.35232,-2.42976 0,-4.71868 16.38598,-2.34292 31.84825,4.61766 15.14522,6.81783 27.55109,16.88072 30.40994,24.66668 1.74251,4.74561 -4.55724,19.31082 -8.35231,19.31082 -3.41045,0 -20.60312,7.85215 -34.40516,15.71338 -5.51564,3.14153 -11.58195,5.14779 -13.48071,4.45832 -1.89874,-0.68945 -3.45225,-0.0433 -3.45225,1.43615 0,1.47936 1.85581,2.68972 4.12401,2.68972 2.2682,0 6.39627,2.73348 9.1735,6.0744 2.77724,3.34091 6.57666,6.07439 8.44318,6.07439 1.86655,0 6.81665,3.00683 11.0002,6.68183 6.30602,5.53944 10.14786,6.75118 22.47064,7.08749 12.47389,0.34043 15.87819,1.44048 21.17017,6.84093 3.46832,3.5394 5.62138,7.08313 4.7846,7.87494 -0.83678,0.79181 -0.12839,3.02792 1.57414,4.96912 4.04289,4.60962 5.49191,15.14084 2.08325,15.14084 -1.4606,0 -2.65561,1.09339 -2.65561,2.42976 0,1.33637 2.46579,2.42976 5.47954,2.42976 8.08058,0 26.01332,5.21727 30.67119,8.92333 2.22961,1.77402 5.1814,3.22546 6.55954,3.22546 4.64984,0 21.48324,16.4108 21.52092,20.98064 0.0205,2.49249 1.68881,9.01588 3.70725,14.49644 2.01843,5.48054 3.94622,15.69541 4.28398,22.6997 l 0.61409,12.73506 14.29487,-1.62291 c 7.86219,-0.89262 19.24609,-3.18038 25.29756,-5.08395 6.05148,-1.90357 13.27327,-3.46104 16.04845,-3.46104 2.77518,0 5.04577,-1.54897 5.04577,-3.44217 0,-1.89317 1.44436,-3.90333 3.20969,-4.46703 2.40442,-0.76773 3.06522,-9.74357 2.63385,-35.77639 -0.31671,-19.11332 -0.94224,-35.09819 -1.39003,-35.52191 -1.01498,-0.96044 -36.66464,7.44951 -46.02338,10.85715 -3.79786,1.38285 -8.12875,4.67767 -9.62423,7.32181 -2.29054,4.04987 -3.98955,4.46271 -10.78096,2.61964 -4.43404,-1.20331 -10.01578,-3.86105 -12.40384,-5.90608 -2.38806,-2.04503 -5.65467,-3.71824 -7.25911,-3.71824 -1.60443,0 -4.28293,-2.41486 -5.95225,-5.36636 -1.6693,-2.95147 -5.46529,-7.32431 -8.43554,-9.7174 -5.26936,-4.24544 -4.93296,-4.34336 13.85771,-4.03384 12.34303,0.20337 27.09525,-1.57387 41.08404,-4.94941 12.00425,-2.89666 26.71575,-6.45684 32.69222,-7.91154 5.97647,-1.45469 10.2907,-3.52618 9.5872,-4.60334 -0.70354,-1.07714 -0.10477,-2.64523 1.3305,-3.48462 1.4353,-0.83938 2.60963,-0.36825 2.60963,1.04699 0,5.97312 7.93552,2.08174 9.34398,-4.58206 1.23583,-5.84717 3.62859,-7.83758 13.08867,-10.88772 10.65678,-3.43597 12.11323,-3.39836 18.33459,0.47339 3.71703,2.31325 8.6022,5.29927 10.85592,6.63564 30.79945,18.26271 40.81595,28.2894 40.81595,40.85754 0,7.2349 -8.8673,18.28679 -17.02759,21.2226 -4.57297,1.64519 -6.08219,4.03723 -6.08219,9.64001 0,4.09852 -1.80456,15.71883 -4.01016,25.82293 -3.63507,16.65266 -3.63507,18.76332 0,22.56417 6.81715,7.12804 5.08736,20.64045 -3.70768,28.96284 -6.17494,5.8431 -10.66653,7.59622 -22.46784,8.76948 -8.11248,0.80653 -25.36316,3.22951 -38.33481,5.38441 -26.96605,4.47972 -52.39479,3.34306 -58.70062,-2.62389 -5.00831,-4.73915 -8.86979,-5.00443 -8.86979,-0.60939 0,6.82043 -8.26886,18.53092 -16.47239,23.32852 -11.4161,6.67637 -12.77359,6.38803 -16.55878,-3.51715 -1.78739,-4.67728 -4.33049,-8.50415 -5.65134,-8.50415 -1.32085,0 -2.40875,-3.55352 -2.41756,-7.89671 -0.008,-4.34319 -3.35593,-19.20874 -7.43801,-33.03452 -5.51076,-18.66466 -9.40265,-27.11134 -15.11369,-32.80174 -9.60299,-9.56829 -16.89292,-23.37667 -20.94455,-39.67265 l -3.12541,-12.57064 -15.83939,5.6201 c -15.50232,5.50049 -15.85594,5.82766 -16.61686,15.37335 -0.74755,9.37784 -0.33216,9.96368 10.79168,15.22066 24.94466,11.78845 35.48413,29.99103 24.2457,41.87446 -7.42474,7.85085 -22.79212,11.01182 -28.28162,5.81734 -3.35343,-3.17325 -3.67299,4.28424 -2.72489,63.59057 l 1.07406,67.18537 -6.45179,6.58749 c -3.54848,3.62311 -6.84643,8.52643 -7.32873,10.89627 -1.35818,6.67353 -8.45039,6.44039 -12.32202,-0.40506 z M 428.1357,224.67501 c -7.03774,-6.87563 -26.65137,-35.84407 -26.65137,-39.3629 0,-3.21022 13.86866,-13.33747 18.26489,-13.33747 2.29743,0 2.653,-7.27409 1.41799,-29.00849 -1.62467,-28.59132 -7.71151,-53.599017 -13.4669,-55.328567 -1.52414,-0.45803 -7.89553,3.43548 -14.15866,8.65222 -10.7953,8.991727 -12.00712,9.396017 -23.30149,7.774077 -8.62634,-1.23878 -14.39233,-4.00608 -20.89509,-10.028287 -4.93958,-4.57452 -11.44252,-10.45864 -14.45098,-13.07581 -3.83386,-3.335207 -5.20372,-6.96405 -4.57999,-12.13263 0.62532,-5.181653 -0.89455,-9.185043 -5.11184,-13.464721 l -6.00175,-6.090552 5.7525,-0.845774 c 3.16389,-0.465153 14.01249,0.994888 24.10802,3.244577 20.20981,4.50358 18.27647,4.901258 58.84268,-12.10413 11.63033,-4.87543 26.09509,-10.247089 49.42925,-18.356114 5.36613,-1.864815 8.34519,-4.529603 8.34519,-7.464823 0,-2.94489 1.82238,-4.5647371 5.1355,-4.5647371 2.85305,0 5.13552,-1.619839 5.13552,-3.644629 0,-2.00455 2.24277,-3.644637 4.98395,-3.644637 2.74118,0 5.60884,-0.95671704 6.37258,-2.12603804 4.4366,-6.79284896 26.77965,0.228641 47.70178,14.99067514 l 14.12263,9.964509 -7.0191,-8.377367 c -3.86051,-4.607574 -20.55597,-27.511726 -37.10097,-50.898143 -16.54503,-23.386418 -30.75812,-43.067455 -31.58467,-43.735638 -0.82653,-0.668183 -6.83955,-8.32192 -13.36223,-17.008304 -6.52271,-8.686387 -16.0513,-19.593707 -21.17467,-24.238487 -11.46391,-10.39302 -14.53687,-9.12197 -26.89115,11.1228 -4.80983,7.88182 -13.18713,20.967133 -18.61621,29.078515 -5.42907,8.111357 -9.87106,16.038441 -9.87106,17.615743 0,2.011985 7.63399,2.867794 25.58122,2.867794 33.00962,0 51.4618,5.786346 57.62148,18.069257 11.60935,23.150148 -3.98908,37.5694229 -37.52863,34.6915939 -21.85058,-1.8748495 -32.40384,-9.2539019 -42.96072,-30.0389969 -7.46243,-14.692525 -8.79667,-16.113982 -11.3618,-12.104469 -1.59855,2.498617 -10.12823,15.442155 -18.95489,28.763398 -8.82665,13.3212439 -16.04845,25.2176289 -16.04845,26.4364189 0,1.218808 -0.86661,2.218119 -1.92582,2.220694 -1.0592,0.0024 -5.90455,5.5285501 -10.76744,12.2798981 -9.2046,12.779165 -29.50037,31.451051 -34.18634,31.451051 -1.48657,0 -6.97481,4.100216 -12.19607,9.111591 -13.02137,12.497871 -24.89005,22.475255 -26.73569,22.475255 -0.84521,0 -6.32204,3.28018 -12.17076,7.28928 -5.84873,4.0091 -12.19391,7.28927 -14.10041,7.28927 -1.90651,0 -3.46637,1.210357 -3.46637,2.689717 0,1.47933 -1.77696,2.04447 -3.94881,1.25584 -2.21482,-0.80422 -4.56966,0.0969 -5.36258,2.05227 -1.43817,3.54643 -18.26185,10.02654 -20.50939,7.8998 -0.67726,-0.64087 1.51303,-1.81702 4.86734,-2.61367 3.3543,-0.79662 7.48507,-4.32754 9.17945,-7.84646 2.23903,-4.650067 4.46484,-6.055517 8.14702,-5.144357 2.78647,0.68952 4.50343,0.39187 3.81548,-0.66145 -0.68795,-1.05332 1.43563,-5.66109 4.71907,-10.23948 5.65735,-7.888529 9.24434,-12.09682 22.39026,-26.268333 3.09912,-3.340917 12.04988,-14.274827 19.89055,-24.297577 7.84068,-10.02275 15.00833,-18.769878 15.92812,-19.438061 2.81892,-2.0478 36.98236,-51.345704 46.30509,-66.818328 4.8312,-8.0182 10.82033,-17.858719 13.30913,-21.867819 14.24386,-22.94476 43.76886,-82.451835 43.7164,-88.109625 -0.0795,-8.59381 -5.40746,-27.85003 -8.5292,-30.82702 -1.33128,-1.26954 -2.42049,-4.95058 -2.42049,-8.18009 0,-4.48264 1.06312,-5.55494 4.49356,-4.53242 14.44454,4.30555 16.04846,4.49947 16.04846,1.9405 0,-1.52793 4.31904,-2.71314 9.88695,-2.71314 7.96178,0 11.03654,1.41937 15.79057,7.28927 3.24699,4.0091 7.17516,7.32565 8.72927,7.37011 5.19664,0.14871 14.49871,9.23386 17.33387,16.92973 2.30032,6.24406 1.96076,9.09696 -1.88744,15.85861 -2.58076,4.53469 -4.16525,8.64494 -3.52104,9.1339 0.64419,0.48899 10.05552,7.13892 20.91409,14.77767 21.35268,15.0211 45.99004,37.393968 84.10731,76.376782 37.4188,38.268488 55.87086,50.1359829 99.00232,63.6735719 30.05445,9.4331391 70.91695,31.8924331 85.2065,46.8321381 8.51133,8.898575 8.73377,13.042696 0.47562,8.860573 -3.7169,-1.882309 -4.79789,-1.589328 -4.79789,1.300382 0,2.051566 1.15548,3.730116 2.56775,3.730116 1.41227,0 2.56775,1.167061 2.56775,2.593499 0,1.538717 -2.21941,1.926943 -5.45706,0.954554 -3.1363,-0.94192 -4.83026,-0.679214 -3.98318,0.617742 0.81064,1.241144 -1.06674,4.326208 -4.17201,6.855683 -5.09219,4.147985 -10.17882,4.594692 -51.86544,4.554652 -49.62556,-0.0476 -45.98495,0.69549 -69.58403,-14.204654 C 593.566,66.279917 581.20936,55.405755 570.20351,44.7017 l -20.01066,-19.461897 1.71527,10.150167 c 1.54504,9.142838 0.95823,10.819347 -5.91274,16.892866 -6.43227,5.68573 -8.74715,11.31057 -14.76717,35.882487 -6.85975,27.999337 -11.52814,42.214857 -25.12929,76.520047 -4.65,11.72836 -7.51923,15.8167 -11.14749,15.88383 -2.68717,0.0498 -6.32877,0.93432 -8.09241,1.96572 -1.79259,1.04837 -3.2066,0.74064 -3.2066,-0.69785 0,-4.41892 -5.12434,-2.80727 -5.33823,1.67892 -0.15303,3.21114 -0.55897,3.39721 -1.65805,0.76007 -0.80045,-1.9206 -4.78917,-6.14646 -8.86381,-9.39079 -5.04429,-4.01639 -6.93122,-7.32169 -5.91289,-10.35767 1.50363,-4.4829 -4.99246,-19.2803 -8.46406,-19.2803 -1.02294,0 -1.85987,10.66057 -1.85987,23.69014 0,33.52269 -2.30562,49.86823 -7.90737,56.05898 -5.90355,6.52431 -8.56169,6.46923 -15.51244,-0.32141 z m 43.80602,-104.33272 c 8.70248,-28.914507 12.18257,-69.875333 5.93325,-69.834611 -6.29589,0.04106 -45.57659,19.373138 -45.52204,22.403799 0.0306,1.698255 3.76307,4.727823 8.29446,6.732373 4.71385,2.085267 10.3759,7.541892 13.23356,12.753432 l 4.99467,9.108797 -5.71883,5.7603 c -9.1427,9.20892 -2.4678,25.83214 10.37264,25.83214 3.31727,0 5.62726,-3.50282 8.41229,-12.75623 z"
       style="fill:#000000" />
  </g>
</svg>
